# AST/ASF file generated using VICON BodyLanguage
# -----------------------------------------------
:version 1.10
:name VICON
:units
  mass 1.0
  length 0.45
  angle deg
:documentation
   .ast/.asf automatically generated from VICON data using
   VICON BodyBuilder and BodyLanguage model FoxedUp or BRILLIANT.MOD
:root
   order TX TY TZ RX RY RZ
   axis XYZ
   position 0 0 0  
   orientation 0 0 0 
:bonedata
  begin
     id 1 
     name lhipjoint
     direction 0.722297 -0.617336 0.311742 
     length 2.6635 
     axis 0 0 0  XYZ
  end
  begin
     id 2 
     name lfemur
     direction 0.34202 -0.939693 0  
     length 7.39349  
     axis 0 0 20  XYZ
    dof rx ry rz
    limits (-160.0 20.0)
           (-70.0 70.0)
           (-60.0 70.0)
  end
  begin
     id 3 
     name ltibia
     direction 0.34202 -0.939693 0   
     length 7.36294   
     axis 0 0 20   XYZ
    dof rx
    limits (-10.0 170.0)
  end
  begin
     id 4 
     name lfoot
     direction 0.104879 -0.288152 0.951824   
     length 2.16981   
     axis -90 7.62852e-016 20   XYZ
    dof rx rz
    limits (-45.0 90.0)
           (-70.0 20.0)
  end
  begin
     id 5 
     name ltoes
     direction 1.53586e-011 -4.21895e-011 1   
     length 1.08218   
     axis -90 7.62852e-016 20   XYZ
    dof rx
    limits (-90.0 20.0)
  end
  begin
     id 6 
     name rhipjoint
     direction -0.75102 -0.589393 0.297631   
     length 2.78977  
     axis 0 0 0  XYZ 
  end
  begin
     id 7 
     name rfemur
     direction -0.34202 -0.939693 0   
     length 7.46076   
     axis 0 0 -20   XYZ
    dof rx ry rz
    limits (-160.0 20.0)
           (-70.0 70.0)
           (-70.0 60.0)
  end
  begin
     id 8 
     name rtibia
     direction -0.34202 -0.939693 0   
     length 7.31726   
     axis 0 0 -20   XYZ
    dof rx
    limits (-10.0 170.0)
 end
 begin
     id 9 
     name rfoot
     direction -0.107991 -0.296704 0.948844   
     length 2.09388  
     axis -90 -7.62852e-016 -20   XYZ
    dof rx rz
    limits (-45.0 90.0)
           (-20.0 70.0)
  end
  begin
     id 10 
     name rtoes
     direction -1.53559e-011 -4.21911e-011 1   
     length 1.04433   
     axis -90 -7.62852e-016 -20   XYZ
    dof rx
    limits (-90.0 20.0)
  end
  begin
     id 11 
     name lowerback
     direction 0.0165164 0.98272 0.184358   
     length 1.71896   
     axis 0 0 0   XYZ
    dof rx ry rz
    limits (-20.0 45.0)
           (-30.0 30.0)
           (-30.0 30.0)
  end
  begin
     id 12 
     name upperback
     direction -0.00887249 0.992297 0.123566   
     length 1.71504   
     axis 0 0 0   XYZ
    dof rx ry rz
    limits (-20.0 45.0)
           (-30.0 30.0)
           (-30.0 30.0)
  end
  begin
     id 13 
     name thorax
     direction -0.0157026 0.998908 0.0440032   
     length 1.77022   
     axis 0 0 0   XYZ
    dof rx ry rz
    limits (-20.0 45.0)
           (-30.0 30.0)
           (-30.0 30.0)
  end
  begin
     id 14 
     name lowerneck
     direction -0.0238856 0.998137 0.0561411   
     length 1.89341   
     axis 0 0 0   XYZ
    dof rx ry rz
    limits (-20.0 45.0)
           (-30.0 30.0)
           (-30.0 30.0)
  end
  begin
     id 15 
     name upperneck
     direction 0.0276574 0.952253 -0.304056   
     length 1.86999   
     axis 0 0 0   XYZ
    dof rx ry rz
    limits (-20.0 45.0)
           (-30.0 30.0)
           (-30.0 30.0)
  end
  begin
     id 16
     name head
     direction 0.00800083 0.994258 -0.106712  
     length 1.91492  
     axis 0 0 0   XYZ
    dof rx ry rz
    limits (-20.0 45.0)
           (-30.0 30.0)
           (-30.0 30.0)
  end
  begin
     id 17 
     name lclavicle
     direction 0.97203 0.225407 0.06595  
     length 3.34889  
     axis 0 0 0   XYZ
    dof ry rz
    limits (-20.0 10.0)
           (0.0 20.0)
  end
  begin
     id 18 
     name lhumerus
     direction 1 -4.48973e-011 2.20267e-027   
     length 4.85645   
     axis 180 -30 -90   XYZ
    dof rx ry rz
    limits (-60.0 90.0)
           (-90.0 90.0)
           (-90.0 90.0)
  end
  begin
     id 19
     name lradius
     direction 1 -4.4897e-011 4.60472e-027   
     length 2.79874   
     axis 180 -30 -90   XYZ
    dof rx
    limits (-10.0 170.0)
  end
  begin
     id 20
     name lwrist
     direction 1 -4.48952e-011 1.14928e-026   
     length 1.39937   
     axis -6.29373e-015 90 90   XYZ
    dof ry
    limits (-180.0 0.0)
 end
  begin
     id 21 
     name lhand
     direction 1 -4.48967e-011 2.29886e-026   
     length 0.573398   
     axis -1.46689e-014 90 90   XYZ
    dof rx rz
    limits (-90.0 90.0)
           (-45.0 45.0)
  end
  begin
     id 22 
     name lfingers
     direction 1 -4.48955e-011 4.59726e-026   
     length 0.462289   
     axis -2.93383e-014 90 90   XYZ
    dof rx
    limits (0.0 90.0)
  end
  begin
     id 23
     name lthumb
     direction 0.707107 -6.34866e-011 0.707107   
     length 0.663757   
     axis -90 45 5.69224e-014   XYZ
    dof rx rz
    limits (-45.0 45.0)
           (-45.0 45.0)
  end
  begin
     id 24 
     name rclavicle
     direction -0.981571 0.157346 0.108443   
     length 3.35257  
     axis 0 0 0   XYZ 
    dof ry rz
    limits (-10.0 20.0)
           (-20.0 0.0)
  end
  begin
     id 25 
     name rhumerus
     direction -1 -4.48967e-011 8.58308e-029  
     length 4.67018   
     axis 180 30 90   XYZ
    dof rx ry rz
    limits (-90.0 60.0)
           (-90.0 90.0)
           (-90.0 90.0)
  end
  begin
     id 26 
     name rradius
     direction -1 -4.48958e-011 4.52548e-027   
     length 2.65534   
     axis 180 30 90   XYZ
    dof rx
    limits (-10.0 170.0)
  end
  begin
     id 27 
     name rwrist
     direction -1 -4.48977e-011 1.14952e-026   
     length 1.32767   
     axis -6.29373e-015 -90 -90   XYZ
    dof ry
    limits (-180.0 0.0)
  end
  begin
     id 28
     name rhand
     direction -1 -4.48924e-011 2.29804e-026   
     length 0.594069   
     axis -1.46689e-014 -90 -90   XYZ
    dof rx rz
    limits (-90.0 90.0)
           (-45.0 45.0)
  end
  begin
     id 29
     name rfingers
     direction -1 -4.48998e-011 4.59888e-026   
     length 0.478954   
     axis -2.93383e-014 -90 -90   XYZ
    dof rx
    limits (0.0 90.0)
  end
  begin
     id 30
     name rthumb
     direction -0.707107 -6.34933e-011 0.707107   
     length 0.687685   
     axis -90 -45 -5.69224e-014   XYZ
    dof rx rz
    limits (-45.0 45.0)
           (-45.0 45.0)
  end
:hierarchy
  begin
    root lhipjoint rhipjoint lowerback
    lhipjoint lfemur
    lfemur ltibia
    ltibia lfoot
    lfoot ltoes
    rhipjoint rfemur
    rfemur rtibia
    rtibia rfoot
    rfoot rtoes
    lowerback upperback
    upperback thorax
    thorax lowerneck lclavicle rclavicle
    lowerneck upperneck
    upperneck head
    lclavicle lhumerus
    lhumerus lradius
    lradius lwrist
    lwrist lhand lthumb
    lhand lfingers
    rclavicle rhumerus
    rhumerus rradius
    rradius rwrist
    rwrist rhand rthumb
    rhand rfingers
  end

#!OML:ASF E:\pregnant2\Project 1\Capture day 1\Session 1\pregnant2.ASF
:FULLY-SPECIFIED
:DEGREES
252
root 5.59137 16.7114 4.5466 48.5231 0.349046 -1.41351
lowerback -6.31923 -1.25347 0.261031
upperback -10.3901 -1.63398 1.6406
thorax -7.3054 -0.780201 1.58135
lowerneck -20.3778 0.351597 0.548342
upperneck 21.2612 1.61821 -5.14359
head 10.2176 0.158097 -1.68152
rclavicle -2.11706e-014 2.98177e-015
rhumerus -62.9472 34.6697 -94.3204
rradius 48.22
rwrist -2.85317
rhand -15.3681 -11.8126
rfingers 7.12502
rthumb 10.8097 -41.5144
lclavicle -2.11706e-014 2.98177e-015
lhumerus -44.6291 -36.7065 106.983
lradius 46.707
lwrist 3.16476
lhand -12.6261 37.7396
lfingers 7.12502
lthumb 13.4536 67.2851
rfemur -70.699 -1.62108 13.8913
rtibia 41.9967
rfoot -12.7004 -18.8434
rtoes -9.9152
lfemur -72.9048 1.18571 -12.7502
ltibia 42.5902
lfoot -13.0853 18.3971
ltoes -7.89883
253
root 5.58493 16.7367 4.57002 48.1783 0.31524 -1.38402
lowerback -6.38081 -1.25511 0.244201
upperback -10.4704 -1.63662 1.62266
thorax -7.35899 -0.780613 1.57233
lowerneck -20.2558 0.351033 0.566114
upperneck 21.3039 1.61247 -5.14351
head 10.2101 0.157888 -1.68529
rclavicle 6.36111e-015 -1.82882e-014
rhumerus -63.5097 34.6082 -94.6353
rradius 48.834
rwrist -3.49243
rhand -15.0547 -11.8598
rfingers 7.12502
rthumb 11.112 -41.5456
lclavicle 6.36111e-015 -1.82882e-014
lhumerus -45.0807 -36.541 107.288
lradius 46.6818
lwrist 3.7824
lhand -12.5622 37.6514
lfingers 7.12502
lthumb 13.5152 67.1929
rfemur -69.9917 -1.38961 13.6757
rtibia 41.5807
rfoot -12.7848 -19.0576
rtoes -9.41616
lfemur -72.1818 1.05076 -12.6695
ltibia 42.1587
lfoot -13.0277 18.5234
ltoes -7.777
254
root 5.57834 16.7615 4.59292 47.8305 0.281638 -1.35834
lowerback -6.47182 -1.25557 0.214929
upperback -10.4774 -1.63681 1.63166
thorax -7.31382 -0.778319 1.59575
lowerneck -20.363 0.350869 0.50883
upperneck 21.3775 1.62775 -5.11409
head 10.2566 0.161092 -1.66463
rclavicle 1.00386e-014 -4.77083e-015
rhumerus -63.8719 34.5824 -94.8129
rradius 49.4392
rwrist -4.10885
rhand -14.6169 -11.9529
rfingers 7.12502
rthumb 11.5343 -41.6156
lclavicle 1.00386e-014 -4.77083e-015
lhumerus -45.3602 -36.439 107.516
lradius 46.6612
lwrist 4.35874
lhand -12.4508 37.5672
lfingers 7.12502
lthumb 13.6226 67.1015
rfemur -69.2944 -1.13857 13.4524
rtibia 41.1796
rfoot -12.8695 -19.2939
rtoes -8.96222
lfemur -71.4654 0.916798 -12.5924
ltibia 41.7407
lfoot -12.946 18.6601
ltoes -7.90259
255
root 5.57124 16.7879 4.61764 47.489 0.254916 -1.34488
lowerback -6.63125 -1.2629 0.194875
upperback -10.4583 -1.64667 1.65348
thorax -7.20058 -0.781599 1.62489
lowerneck -20.5056 0.360261 0.49981
upperneck 21.4433 1.65412 -5.13599
head 10.3082 0.166743 -1.66877
rclavicle 2.25621e-014 3.8763e-015
rhumerus -64.1815 34.5406 -94.9405
rradius 50.0477
rwrist -4.63541
rhand -14.2325 -11.9771
rfingers 7.12502
rthumb 11.9049 -41.6186
lclavicle 2.25621e-014 3.8763e-015
lhumerus -45.5423 -36.3921 107.702
lradius 46.5774
lwrist 4.88372
lhand -12.2644 37.4455
lfingers 7.12502
lthumb 13.8022 66.9676
rfemur -68.5988 -0.885605 13.2652
rtibia 40.7944
rfoot -12.9522 -19.518
rtoes -8.63997
lfemur -70.7622 0.768897 -12.4704
ltibia 41.3265
lfoot -12.8288 18.8256
ltoes -7.8422
256
root 5.56378 16.8102 4.64086 47.1408 0.22963 -1.32347
lowerback -6.71193 -1.26458 0.183977
upperback -10.5148 -1.64891 1.65038
thorax -7.21691 -0.781834 1.62697
lowerneck -20.4706 0.370126 0.532848
upperneck 21.4924 1.66743 -5.16794
head 10.3205 0.171346 -1.6843
rclavicle 1.69464e-014 -2.18663e-014
rhumerus -64.632 34.39 -95.1348
rradius 50.673
rwrist -5.11379
rhand -13.7468 -11.8427
rfingers 7.12502
rthumb 12.3733 -41.4566
lclavicle 1.69464e-014 -2.18663e-014
lhumerus -45.9124 -36.2645 107.936
lradius 46.5141
lwrist 5.21689
lhand -12.0402 37.2139
lfingers 7.12502
lthumb 14.0183 66.7212
rfemur -67.9181 -0.639921 13.0739
rtibia 40.4184
rfoot -13.0056 -19.7594
rtoes -8.30845
lfemur -70.0495 0.647716 -12.4051
ltibia 40.9208
lfoot -12.7315 18.9679
ltoes -7.86633
257
root 5.55717 16.8336 4.6647 46.793 0.236196 -1.32016
lowerback -6.76366 -1.26706 0.228246
upperback -10.5766 -1.65283 1.6508
thorax -7.25692 -0.786748 1.60294
lowerneck -20.4949 0.386429 0.556944
upperneck 21.5763 1.68926 -5.17771
head 10.3564 0.18046 -1.68998
rclavicle -1.73937e-015 -3.97569e-016
rhumerus -64.9957 34.2788 -95.3403
rradius 51.213
rwrist -5.77295
rhand -13.0578 -11.7732
rfingers 7.12502
rthumb 13.0374 -41.3457
lclavicle -1.73937e-015 -3.97569e-016
lhumerus -46.2723 -36.0144 108.105
lradius 46.4646
lwrist 5.2883
lhand -11.5824 36.9609
lfingers 7.12502
lthumb 14.4594 66.4371
rfemur -67.2292 -0.397924 12.92
rtibia 40.0411
rfoot -13.0935 -19.984
rtoes -7.93615
lfemur -69.3408 0.528845 -12.3178
ltibia 40.5177
lfoot -12.6681 19.0708
ltoes -7.78991
258
root 5.54871 16.8572 4.6899 46.4528 0.201511 -1.29772
lowerback -6.85125 -1.2664 0.205074
upperback -10.6265 -1.65126 1.65749
thorax -7.2615 -0.78378 1.62181
lowerneck -20.5467 0.386428 0.548676
upperneck 21.6543 1.70114 -5.19637
head 10.395 0.180926 -1.69496
rclavicle 1.83876e-015 -2.3059e-014
rhumerus -65.3324 34.147 -95.4842
rradius 51.7602
rwrist -6.45386
rhand -12.3869 -11.678
rfingers 7.12502
rthumb 13.6841 -41.2081
lclavicle 1.83876e-015 -2.3059e-014
lhumerus -46.5806 -35.8446 108.293
lradius 46.3641
lwrist 5.30617
lhand -11.1836 36.7136
lfingers 7.12502
lthumb 14.8436 66.1619
rfemur -66.5535 -0.13626 12.726
rtibia 39.6809
rfoot -13.2037 -20.1896
rtoes -7.52591
lfemur -68.6535 0.432178 -12.2723
ltibia 40.1228
lfoot -12.6118 19.1636
ltoes -7.71626
259
root 5.54072 16.8793 4.71462 46.0982 0.197141 -1.2922
lowerback -6.95427 -1.27343 0.22191
upperback -10.6885 -1.66032 1.67707
thorax -7.2714 -0.788622 1.63177
lowerneck -20.4211 0.397992 0.573207
upperneck 21.6341 1.72059 -5.24888
head 10.3657 0.187421 -1.71406
rclavicle 1.35174e-014 -6.55989e-015
rhumerus -65.7528 34.0133 -95.6584
rradius 52.3615
rwrist -7.22319
rhand -11.6906 -11.5084
rfingers 7.12502
rthumb 14.3552 -40.9921
lclavicle 1.35174e-014 -6.55989e-015
lhumerus -46.9523 -35.6298 108.469
lradius 46.3346
lwrist 5.19486
lhand -10.7256 36.4118
lfingers 7.12502
lthumb 15.2848 65.8271
rfemur -65.8677 0.110916 12.5864
rtibia 39.3229
rfoot -13.3083 -20.4063
rtoes -7.18636
lfemur -67.9415 0.293811 -12.1658
ltibia 39.7358
lfoot -12.5983 19.3039
ltoes -7.53889
260
root 5.53211 16.9004 4.73828 45.7462 0.198024 -1.2566
lowerback -7.03924 -1.30099 0.199044
upperback -10.7053 -1.69616 1.70669
thorax -7.2394 -0.803879 1.6735
lowerneck -20.5193 0.429211 0.590054
upperneck 21.6669 1.76878 -5.27729
head 10.3982 0.205439 -1.72094
rclavicle 1.49089e-016 -1.26228e-014
rhumerus -66.0038 33.9763 -95.7916
rradius 52.9378
rwrist -8.20898
rhand -10.9386 -11.459
rfingers 7.12502
rthumb 15.0797 -40.8897
lclavicle 1.49089e-016 -1.26228e-014
lhumerus -47.2 -35.3375 108.559
lradius 46.2847
lwrist 4.94064
lhand -10.2511 36.2289
lfingers 7.12502
lthumb 15.7419 65.6087
rfemur -65.1996 0.326565 12.4411
rtibia 38.9864
rfoot -13.4359 -20.6059
rtoes -6.65258
lfemur -67.252 0.118642 -12.0664
ltibia 39.3541
lfoot -12.499 19.4618
ltoes -7.58597
261
root 5.5234 16.9211 4.76333 45.3901 0.158778 -1.23341
lowerback -7.13306 -1.29112 0.206003
upperback -10.7469 -1.68418 1.68682
thorax -7.23317 -0.799162 1.64729
lowerneck -20.5338 0.449837 0.680773
upperneck 21.6752 1.7898 -5.358
head 10.4063 0.212421 -1.76214
rclavicle 9.7156e-015 -4.87022e-015
rhumerus -66.3566 33.7722 -95.9819
rradius 53.5594
rwrist -9.18833
rhand -10.1775 -11.4931
rfingers 7.12502
rthumb 15.8127 -40.8673
lclavicle 9.7156e-015 -4.87022e-015
lhumerus -47.5441 -35.1271 108.678
lradius 46.2648
lwrist 4.66518
lhand -9.68494 36.0337
lfingers 7.12502
lthumb 16.287 65.3697
rfemur -64.5343 0.573689 12.2854
rtibia 38.656
rfoot -13.5485 -20.7949
rtoes -6.31064
lfemur -66.5502 -0.0137035 -12.0001
ltibia 38.9788
lfoot -12.4104 19.6209
ltoes -7.50213
262
root 5.51342 16.9399 4.78738 45.0452 0.116057 -1.1834
lowerback -7.22142 -1.29894 0.160059
upperback -10.8064 -1.69423 1.67837
thorax -7.24771 -0.800927 1.66307
lowerneck -20.4746 0.461049 0.707397
upperneck 21.6429 1.7954 -5.36062
head 10.3838 0.218224 -1.76591
rclavicle 2.19657e-014 -5.56597e-015
rhumerus -66.732 33.6339 -96.1937
rradius 54.1952
rwrist -10.2761
rhand -9.4374 -11.5296
rfingers 7.12502
rthumb 16.5254 -40.8459
lclavicle 2.19657e-014 -5.56597e-015
lhumerus -47.8845 -34.9516 108.809
lradius 46.2221
lwrist 4.44906
lhand -9.18119 35.8475
lfingers 7.12502
lthumb 16.772 65.143
rfemur -63.8902 0.818074 12.0971
rtibia 38.3397
rfoot -13.6832 -20.9925
rtoes -5.81264
lfemur -65.8586 -0.149206 -11.9731
ltibia 38.5995
lfoot -12.3305 19.7654
ltoes -7.46982
263
root 5.50446 16.9604 4.8122 44.6933 0.107705 -1.16208
lowerback -7.31276 -1.31216 0.16224
upperback -10.8611 -1.71119 1.70045
thorax -7.25556 -0.808547 1.68385
lowerneck -20.4686 0.487278 0.757447
upperneck 21.6673 1.83523 -5.4308
head 10.3943 0.231671 -1.79392
rclavicle 3.20043e-014 -3.57812e-015
rhumerus -67.0618 33.5403 -96.3944
rradius 54.7758
rwrist -11.4274
rhand -8.71227 -11.5064
rfingers 7.12502
rthumb 17.2234 -40.7631
lclavicle 3.20043e-014 -3.57812e-015
lhumerus -48.221 -34.6587 108.91
lradius 46.2445
lwrist 4.20505
lhand -8.49455 35.6856
lfingers 7.12502
lthumb 17.4329 64.9239
rfemur -63.2325 1.05188 11.9719
rtibia 38.0261
rfoot -13.83 -21.1781
rtoes -5.37094
lfemur -65.1618 -0.312424 -11.8734
ltibia 38.2188
lfoot -12.277 19.9314
ltoes -7.33463
264
root 5.49402 16.9811 4.83734 44.3305 0.0481937 -1.11507
lowerback -7.41072 -1.32035 0.104796
upperback -10.9409 -1.72123 1.69407
thorax -7.28676 -0.809177 1.7085
lowerneck -20.26 0.484681 0.810114
upperneck 21.5912 1.82094 -5.47712
head 10.328 0.228039 -1.81919
rclavicle -6.18717e-015 3.8266e-015
rhumerus -67.4705 33.3794 -96.6453
rradius 55.3769
rwrist -12.526
rhand -7.91242 -11.5424
rfingers 7.12502
rthumb 17.9931 -40.7301
lclavicle -6.18717e-015 3.8266e-015
lhumerus -48.6289 -34.3925 109.026
lradius 46.3103
lwrist 4.17798
lhand -7.78892 35.6009
lfingers 7.12502
lthumb 18.1119 64.7776
rfemur -62.5698 1.30991 11.7962
rtibia 37.7096
rfoot -13.9775 -21.3709
rtoes -4.92791
lfemur -64.4515 -0.523625 -11.7597
ltibia 37.8336
lfoot -12.1679 20.1566
ltoes -7.3528
265
root 5.48386 16.9977 4.86202 43.9908 0.01545 -1.07047
lowerback -7.5159 -1.31902 0.0816747
upperback -10.9399 -1.71939 1.69283
thorax -7.22558 -0.806887 1.71704
lowerneck -20.4519 0.493813 0.86172
upperneck 21.6019 1.83507 -5.53785
head 10.3695 0.22846 -1.84866
rclavicle 2.83268e-014 -1.82882e-014
rhumerus -67.6313 33.251 -96.7557
rradius 55.939
rwrist -13.5417
rhand -7.12075 -11.5469
rfingers 7.12502
rthumb 18.7547 -40.6628
lclavicle 2.83268e-014 -1.82882e-014
lhumerus -48.8282 -34.1849 109.054
lradius 46.3808
lwrist 4.25454
lhand -7.10719 35.5011
lfingers 7.12502
lthumb 18.7677 64.6157
rfemur -61.9392 1.564 11.6258
rtibia 37.4011
rfoot -14.1687 -21.5554
rtoes -4.30912
lfemur -63.7378 -0.728709 -11.6706
ltibia 37.4436
lfoot -12.1636 20.3844
ltoes -7.3825
